<svg id="Layer_1" data-name="Layer 1" xmlns="http://www.w3.org/2000/svg" viewBox="0 0 100 100"><defs><style>.cls-1{fill:#1c1717;}.cls-2{fill:#fff;}.cls-3{fill:#a5a8aa;}.cls-4{opacity:0.3;}.cls-5{fill:#e18621;}</style></defs><path class="cls-1" d="M54,70.51a17,17,0,0,1,12-16.2c.19-.85.39-1.69.58-2.55C69,40.52,71.5,28.9,71.5,21.52h-43c0,7.38,2.5,19,4.92,30.24.75,3.48,1.6,6.9,2.42,10.22,1.84,7.41,3.58,14.43,3.66,20.1H58.57A16.88,16.88,0,0,1,54,70.51Z"/><circle class="cls-1" cx="52.22" cy="18.56" r="1.08"/><circle class="cls-2" cx="49.54" cy="24.1" r="0.9"/><circle class="cls-2" cx="49.54" cy="32.79" r="1.7"/><circle class="cls-2" cx="50" cy="47.6" r="0.9"/><circle class="cls-2" cx="52.49" cy="40.15" r="1.63"/><circle class="cls-2" cx="52.05" cy="29.07" r="1.25"/><path class="cls-3" d="M60.81,84.08H37.5v-1.6c0-7.91-3.56-18.8-6-30.3-2.45-11.34-5-23.07-5-30.66v-9.2h47v9.2c0,7.59-2.52,19.32-5,30.66-.11.55-.24,1.09-.36,1.63a17.79,17.79,0,0,1,2.75-.24l.38,0c0-.26.11-.52.17-.77,2.47-11.5,5-23.39,5-31.3V10.92h-53v10.6c0,7.91,2.56,19.8,5,31.3,2.45,11.34,5,22.07,5,29.66v6.6h33V86.85A17,17,0,0,1,60.81,84.08Z"/><g class="cls-4"><path class="cls-2" d="M30.83,14.92v4.22c0,7.8,2.55,19.63,5,31.08.76,3.53,1.62,7,2.45,10.33,1.82,7.35,3.54,14.29,3.54,19.54v1.6a2.58,2.58,0,0,0,0,.39h3.92a1.72,1.72,0,0,0,0-.39v-1.6c0-5.74-1.78-12.91-3.66-20.5-.82-3.32-1.67-6.74-2.42-10.21-2.42-11.24-4.92-22.87-4.92-30.24V14.92Z"/></g><circle class="cls-5" cx="70.92" cy="70.51" r="14.94" transform="translate(-14.3 18.18) rotate(-13.28)"/><path class="cls-2" d="M70.92,63.1A3.9,3.9,0,0,1,74.46,65a10.74,10.74,0,0,1,1.2,5.65,10.72,10.72,0,0,1-1.2,5.65,4.24,4.24,0,0,1-7.08,0,10.72,10.72,0,0,1-1.2-5.65A10.74,10.74,0,0,1,67.38,65,3.89,3.89,0,0,1,70.92,63.1Zm0,1.57a2.2,2.2,0,0,0-2.07,1.47,11.48,11.48,0,0,0-.68,4.52,16.34,16.34,0,0,0,.19,2.59L72.92,66A2.23,2.23,0,0,0,70.92,64.67Zm0,12A2.22,2.22,0,0,0,73,75.18a11.44,11.44,0,0,0,.68-4.52,19.8,19.8,0,0,0-.2-2.92L68.81,75A2.3,2.3,0,0,0,70.92,76.66Z"/></svg>