<svg id="Layer_1" data-name="Layer 1" xmlns="http://www.w3.org/2000/svg" viewBox="0 0 98.94 98.98"><defs><style>.cls-1{fill:#e18621;}.cls-2,.cls-5{fill:#fff;}.cls-3{fill:#352212;}.cls-4{fill:#a5a8aa;}.cls-5{opacity:0.25;}</style></defs><circle class="cls-1" cx="70.92" cy="66.21" r="14.94" transform="translate(-13.31 18.07) rotate(-13.28)"/><path class="cls-2" d="M70.92,58.79a3.92,3.92,0,0,1,3.54,1.91,10.78,10.78,0,0,1,1.2,5.66A10.74,10.74,0,0,1,74.46,72a4.24,4.24,0,0,1-7.08,0,10.74,10.74,0,0,1-1.2-5.65,10.78,10.78,0,0,1,1.2-5.66A3.92,3.92,0,0,1,70.92,58.79Zm0,1.57a2.2,2.2,0,0,0-2.07,1.48,11.44,11.44,0,0,0-.68,4.52,17.37,17.37,0,0,0,.19,2.58l4.56-7.28A2.25,2.25,0,0,0,70.92,60.36Zm0,12A2.21,2.21,0,0,0,73,70.87a11.39,11.39,0,0,0,.68-4.51,19.8,19.8,0,0,0-.2-2.92l-4.66,7.3A2.31,2.31,0,0,0,70.92,72.35Z"/><path class="cls-3" d="M54,66.21A16.89,16.89,0,0,1,60.39,53H19.91A27,27,0,0,0,44.07,68h2A26.72,26.72,0,0,0,54,66.82C54,66.61,54,66.41,54,66.21Z"/><path class="cls-4" d="M89.28,33.94c-2.61-2.62-6.56-3.3-10.49-2.23V22.57l-67.32-.11c0,.08,0,.16,0,.24l0,21.36a33.64,33.64,0,0,0,17,29.28v5.1l30.87,0a16.89,16.89,0,0,1-5.07-9.64A28.87,28.87,0,0,1,46.06,70h-2a29,29,0,0,1-29-29l0-17.1h60l0,17.19a29.1,29.1,0,0,1-1.29,8.5,16.3,16.3,0,0,1,4.23,1.33,33,33,0,0,0,.71-6.71V35.89a9.56,9.56,0,0,1,3.49-.72,5.75,5.75,0,0,1,4.18,1.6,6.14,6.14,0,0,1,1.48,5.35,12.15,12.15,0,0,1-3.59,6.77,13.34,13.34,0,0,1-4.47,3,16.91,16.91,0,0,1,3.4,2.8,17,17,0,0,0,3.9-2.93,16.2,16.2,0,0,0,4.72-9A10,10,0,0,0,89.28,33.94Z"/><path class="cls-5" d="M44.16,60a19,19,0,0,1-19-19V25.74h-4V41a23,23,0,0,0,23,23h0a2,2,0,1,0,0-4Z"/></svg>