<svg id="Layer_1" data-name="Layer 1" xmlns="http://www.w3.org/2000/svg" viewBox="0 0 100 100"><defs><style>.cls-1{fill:#91c3e2;}.cls-2{fill:#352212;}.cls-3{fill:#a5a8aa;}.cls-4{fill:#fff;opacity:0.25;}</style></defs><path class="cls-1" d="M17.12,32.52l0,8.43a26.9,26.9,0,0,0,2.81,12H70.32A27,27,0,0,0,73.12,41V32.52Z"/><path class="cls-2" d="M19.91,53A27,27,0,0,0,44.07,68h2A27,27,0,0,0,70.32,53Z"/><path class="cls-3" d="M89.28,33.94c-2.61-2.62-6.56-3.3-10.49-2.23V22.57l-67.32-.11c0,.08,0,.16,0,.24l0,21.36a33.64,33.64,0,0,0,17,29.28v5.1l33.29,0v-5.1A33.81,33.81,0,0,0,76.39,56.52a15.7,15.7,0,0,0,10.78-4.8,16.2,16.2,0,0,0,4.72-9A10,10,0,0,0,89.28,33.94ZM46.06,70h-2a29,29,0,0,1-29-29l0-17.1h60l0,17.19A29,29,0,0,1,46.06,70ZM87.93,42.12a12.15,12.15,0,0,1-3.59,6.77,12.34,12.34,0,0,1-6.63,3.56,33.81,33.81,0,0,0,1.06-8.29V35.89a9.56,9.56,0,0,1,3.49-.72,5.75,5.75,0,0,1,4.18,1.6A6.14,6.14,0,0,1,87.93,42.12Z"/><path class="cls-4" d="M44.16,60a19,19,0,0,1-19-19V25.74h-4V41a23,23,0,0,0,23,23h0a2,2,0,1,0,0-4Z"/></svg>