<svg height="512" viewBox="0 0 53 60" width="512" xmlns="http://www.w3.org/2000/svg"><g id="Page-1" fill="none" fill-rule="evenodd"><g id="077---Grinder-Settings" fill="rgb(0,0,0)" fill-rule="nonzero"><path id="Shape" d="m11 5c0-.55228475-.4477153-1-1-1h-5c-.55228475 0-1 .44771525-1 1v2c0 .55228475.44771525 1 1 1s1-.44771525 1-1v-1h4c.5522847 0 1-.44771525 1-1z"/><path id="Shape" d="m33.413 26.2c.0488981-.1704037.0741345-.3467214.075-.524l12.265-14.018c.0262089-.0392954.0496008-.0803983.07-.123.042754-.057644.0786617-.120063.107-.186.0214592-.0679577.0355403-.1380281.042-.209.0128765-.0458876.0222369-.0926898.028-.14v-6c-.0033061-2.76005315-2.2399468-4.99669388-5-5h-36c-2.76005315.00330612-4.99669388 2.23994685-5 5v6c.00576307.0473102.01512351.0941124.028.14.00645972.0709719.02054084.1410423.042.209.02857581.0656144.06411274.1279717.106.186.02035239.0428259.04409462.0839568.071.123l12.265 14.014c.0017614.1768829.0269814.3527505.075.523l.529 1.8-2.8 4.887-1.791.433c-.89620195.2168741-1.52682169 1.0199322-1.525 1.942v3.486c-.00230549.9239913.63048069 1.7285278 1.529 1.944l1.791.433 2.8 4.887-.529 1.8c-.2605071.8824309.1146347 1.8287457.909 2.293l2.967 1.724c.8228565.4758009 1.866678.3087894 2.5-.4l1.262-1.424h5.542l1.261 1.422c.3813273.4274857.9271526.6716516 1.5.671.3513545.0000885.6964368-.0930837 1-.27l1.457-.846 18.611 8.855c.2523613.1101524.5246469.1673323.8.168.6107031-.0007991 1.1875742-.2805787 1.5663153-.7596549.3787411-.4790763.5178417-1.1049421.3776847-1.6993451l-2.29-10.441c-.1099582-.4372419-.3639358-.8247249-.721-1.1l-10.333-7.952v-2.791c.0023055-.9239913-.6304807-1.7285278-1.529-1.944l-1.791-.433-2.8-4.887zm-31.413-21.2c0-1.65685425 1.34314575-3 3-3h36c1.6568542 0 3 1.34314575 3 3v5h-31c-.5522847 0-1 .4477153-1 1s.4477153 1 1 1h29.8l-10.379 11.855-2.887-1.678c-.8224067-.4782254-1.8678617-.3109526-2.5.4l-1.262 1.423h-5.544l-1.26-1.421c-.6331257-.7091487-1.677218-.8762034-2.5-.4l-2.887 1.678-10.381-11.857h5.8c.55228475 0 1-.4477153 1-1s-.44771525-1-1-1h-7zm48.43 53.012-17.452-8.3c.4666534-.5140145.631527-1.2341521.435-1.9l-.529-1.8 2.8-4.887 1.791-.433c.3664801-.0901311.6997749-.2826166.961-.555l9.675 7.42zm-16.273-23.765c.1367046.2386418.3656592.4104482.633.475l2.21.535v3.486l-2.21.535c-.2673408.0645518-.4962954.2363582-.633.475l-3.221 5.63c-.135144.236442-.1680083.5177752-.091.779l.65 2.208-2.967 1.73-1.558-1.763c-.1896561-.2141483-.4619425-.3368228-.748-.337h-6.444c-.2860575.0001772-.5583439.1228517-.748.337l-1.558 1.763-2.967-1.726.65-2.207c.0770083-.2612248.044144-.542558-.091-.779l-3.221-5.63c-.1367046-.2386418-.3656592-.4104482-.633-.475l-2.21-.54v-3.486l2.21-.535c.2673408-.0645518.4962954-.2363582.633-.475l3.221-5.63c.135144-.236442.1680083-.5177752.091-.779l-.65-2.208 2.966-1.724 1.559 1.758c.1898381.2137773.4620993.3360764.748.336h6.444c.2859007.0000764.5581619-.1222227.748-.336l1.558-1.759 2.967 1.726-.65 2.207c-.0770083.2612248-.044144.542558.091.779z"/><path id="Shape" d="m23 29c-4.418278 0-8 3.581722-8 8s3.581722 8 8 8 8-3.581722 8-8c-.0049599-4.4162219-3.5837781-7.9950401-8-8zm6 8c0 3.3137085-2.6862915 6-6 6s-6-2.6862915-6-6 2.6862915-6 6-6c3.3123376.0033074 5.9966926 2.6876624 6 6z"/></g></g></svg>