<?xml version="1.0" encoding="UTF-8"?>
<svg xmlns="http://www.w3.org/2000/svg" id="Outline" viewBox="0 0 512 512" width="512" height="512"><path d="M408,16H104A40,40,0,0,0,96,95.2V488a8,8,0,0,0,8,8H408a8,8,0,0,0,8-8V336h24a8,8,0,0,0,8-8V56A40.045,40.045,0,0,0,408,16ZM80,56a24.028,24.028,0,0,1,24-24H360.022a39.912,39.912,0,0,0,0,48H104A24.028,24.028,0,0,1,80,56ZM400,80h-8a24.039,24.039,0,0,1-22.624-16H400ZM112,480V96H400V480ZM432,320H416V56a8,8,0,0,0-8-8H369.376A24.039,24.039,0,0,1,392,32h16a24.027,24.027,0,0,1,24,24Z"/><path d="M224,144h64a8,8,0,0,0,0-16H224a8,8,0,0,0,0,16Z"/><path d="M136,192h80a8,8,0,0,0,0-16H136a8,8,0,0,0,0,16Z"/><path d="M376,176H328a8,8,0,0,0,0,16h48a8,8,0,0,0,0-16Z"/><path d="M136,224h80a8,8,0,0,0,0-16H136a8,8,0,0,0,0,16Z"/><path d="M376,208H328a8,8,0,0,0,0,16h48a8,8,0,0,0,0-16Z"/><path d="M136,256h80a8,8,0,0,0,0-16H136a8,8,0,0,0,0,16Z"/><path d="M376,240H328a8,8,0,0,0,0,16h48a8,8,0,0,0,0-16Z"/><path d="M136,288h80a8,8,0,0,0,0-16H136a8,8,0,0,0,0,16Z"/><path d="M376,272H328a8,8,0,0,0,0,16h48a8,8,0,0,0,0-16Z"/><path d="M224,312a8,8,0,0,0-8-8H136a8,8,0,0,0,0,16h80A8,8,0,0,0,224,312Z"/><path d="M376,304H328a8,8,0,0,0,0,16h48a8,8,0,0,0,0-16Z"/><path d="M288,352c-13.676,0-25.765,8.282-32.982,20.882A55.956,55.956,0,0,0,232,368c-26.467,0-48,17.944-48,40s21.533,40,48,40a53.519,53.519,0,0,0,31.693-9.916A35.757,35.757,0,0,0,288,448c22.056,0,40-21.532,40-48S310.056,352,288,352Zm-56,32a39.555,39.555,0,0,1,17.3,3.863,56.775,56.775,0,0,0-1.257,10.221A55.343,55.343,0,0,0,232,396a54.133,54.133,0,0,0-22.967,4.572,44.077,44.077,0,0,1-8.4,2.692C203.569,392.291,216.516,384,232,384Zm-28.429,35a58.186,58.186,0,0,0,11.405-3.568,43.987,43.987,0,0,1,34.046,0q.618.247,1.25.5a52.467,52.467,0,0,0,3.763,9.388A38.126,38.126,0,0,1,232,432C219.638,432,208.9,426.712,203.571,419ZM264,400c0-15.482,8.29-28.429,19.261-31.371a43.994,43.994,0,0,1-2.689,8.4,59.992,59.992,0,0,0,0,45.942,43.994,43.994,0,0,1,2.689,8.4C272.29,428.429,264,415.482,264,400Zm34.994,28.43a58.146,58.146,0,0,0-3.566-11.4,44.011,44.011,0,0,1,0-34.058,58.146,58.146,0,0,0,3.566-11.4C306.711,376.9,312,387.637,312,400S306.711,423.1,298.994,428.43Z"/></svg>
