<svg id="Layer_1" data-name="Layer 1" xmlns="http://www.w3.org/2000/svg" viewBox="0 0 100 100"><defs><style>.cls-1{fill:#3e2b2d;}.cls-2{fill:#8b949d;}.cls-3{fill:#fff;}.cls-4{opacity:0.3;}</style></defs><path class="cls-1" d="M66.58,51.76C69,40.52,71.5,28.9,71.5,21.52h-43c0,7.38,2.5,19,4.92,30.24.75,3.48,1.6,6.9,2.42,10.22,1.84,7.41,3.58,14.43,3.66,20.1h21c.08-5.67,1.82-12.69,3.66-20.1C65,58.66,65.83,55.24,66.58,51.76Z"/><circle class="cls-1" cx="52.22" cy="18.56" r="1.08"/><path class="cls-2" d="M23.5,10.92v10.6c0,7.91,2.56,19.8,5,31.3,2.45,11.34,5,22.07,5,29.66v6.6h33v-6.6c0-7.59,2.52-18.32,5-29.66,2.47-11.5,5-23.39,5-31.3V10.92Zm50,2v8.6c0,7.59-2.52,19.32-5,30.66-2.47,11.5-6,22.39-6,30.3v1.6h-25v-1.6c0-7.91-3.56-18.8-6-30.3-2.45-11.34-5-23.07-5-30.66V12.26h47Z"/><circle class="cls-3" cx="49.54" cy="24.1" r="0.9"/><circle class="cls-3" cx="49.54" cy="32.79" r="1.7"/><circle class="cls-3" cx="50" cy="47.6" r="0.9"/><circle class="cls-3" cx="52.49" cy="40.15" r="1.63"/><circle class="cls-3" cx="52.05" cy="29.07" r="1.25"/><g class="cls-4"><path class="cls-3" d="M30.83,14.92v4.22c0,7.8,2.55,19.63,5,31.08.76,3.53,1.62,7,2.45,10.33,1.82,7.35,3.54,14.29,3.54,19.54v1.6a2.58,2.58,0,0,0,0,.39h3.92a1.72,1.72,0,0,0,0-.39v-1.6c0-5.74-1.78-12.91-3.66-20.5-.82-3.32-1.67-6.74-2.42-10.21-2.42-11.24-4.92-22.87-4.92-30.24V14.92Z"/></g></svg>