<svg id="Layer_1" data-name="Layer 1" xmlns="http://www.w3.org/2000/svg" viewBox="0 0 100 100"><defs><style>.cls-1{fill:#7d462f;}.cls-2{fill:#212d1a;}.cls-3{fill:#50593e;}.cls-4{fill:none;}.cls-5{fill:#a5a8aa;}.cls-6{fill:#fff;opacity:0.25;}</style></defs><path class="cls-1" d="M25.1,29.19h-8L17.1,41A27,27,0,0,0,44.07,68h2a26.51,26.51,0,0,0,6.4-.76,31,31,0,0,1-1.23-3.71,38.18,38.18,0,0,1-.84-3.92A50.92,50.92,0,0,1,49.76,53a47.34,47.34,0,0,1,.09-5.42L50,45.87l1.68-.15s1.37-.12,3.45-.12c4.27,0,11.07.49,16.89,3A27.21,27.21,0,0,0,73.12,41l0-11.85Z"/><path class="cls-2" d="M77,54.21C71.13,48.4,60.48,47.6,55.12,47.6c-2,0-3.28.12-3.28.12s-1.49,17.11,6.5,25.1A21.69,21.69,0,0,0,74.09,79.3a24.23,24.23,0,0,0,8-1.31S86.49,63.76,77,54.21Z"/><path class="cls-3" d="M77.06,72.71V60.9a16,16,0,0,0-2-3V70.93l-4-4V54.58a21.44,21.44,0,0,0-2-.92V64.93L64.5,60.38V52.3c-.67-.14-1.34-.26-2-.36v6.44L51.84,47.72s-1.49,17.11,6.5,25.1C68.71,83.2,82.11,78,82.11,78L77,72.85Z"/><path class="cls-4" d="M84.34,48.89a12.15,12.15,0,0,0,3.59-6.77,6.14,6.14,0,0,0-1.48-5.35,5.75,5.75,0,0,0-4.18-1.6,9.56,9.56,0,0,0-3.49.72v8.27a33.7,33.7,0,0,1-1,8.09l.18.15A12.42,12.42,0,0,0,84.34,48.89Z"/><path class="cls-5" d="M89.28,33.94c-2.61-2.62-6.56-3.3-10.49-2.23V22.57l-67.32-.11c0,.08,0,.16,0,.24l0,21.36a33.64,33.64,0,0,0,17,29.28v5.1l33.29,0V78a24.81,24.81,0,0,1-4.78-3.72,19.7,19.7,0,0,1-3.61-5.14,28.86,28.86,0,0,1-7.25.9h-2a29,29,0,0,1-29-29l0-17.1h60l0,17.19a29.23,29.23,0,0,1-1.28,8.47,19.76,19.76,0,0,1,3.91,2.74,33.7,33.7,0,0,0,1-8.09V35.89a9.56,9.56,0,0,1,3.49-.72,5.75,5.75,0,0,1,4.18,1.6,6.14,6.14,0,0,1,1.48,5.35,12.15,12.15,0,0,1-3.59,6.77,12.42,12.42,0,0,1-6.41,3.51l.43.4a22.19,22.19,0,0,1,2.47,2.93,16.82,16.82,0,0,0,6.34-4,16.2,16.2,0,0,0,4.72-9A10,10,0,0,0,89.28,33.94Z"/><path class="cls-6" d="M44.16,60a19,19,0,0,1-19-19V25.74h-4V41a23,23,0,0,0,23,23h0a2,2,0,1,0,0-4Z"/></svg>