<svg id="Layer_1" data-name="Layer 1" xmlns="http://www.w3.org/2000/svg" viewBox="0 0 100 100"><defs><style>.cls-1{fill:#a5a8aa;}.cls-2{fill:#e9e4dc;}.cls-3,.cls-6{fill:#fff;}.cls-4{fill:#352212;}.cls-5{fill:#ccbda2;}.cls-6{opacity:0.25;}</style></defs><path class="cls-1" d="M89.28,33.94c-2.61-2.62-6.56-3.3-10.49-2.23V22.57l-67.32-.11c0,.08,0,.16,0,.24l0,21.36a33.64,33.64,0,0,0,17,29.28v5.1l33.29,0v-5.1A33.81,33.81,0,0,0,76.39,56.52a15.7,15.7,0,0,0,10.78-4.8,16.2,16.2,0,0,0,4.72-9A10,10,0,0,0,89.28,33.94ZM46.06,70h-2a29,29,0,0,1-29-29l0-17.1h60l0,17.19A29,29,0,0,1,46.06,70ZM87.93,42.12a12.15,12.15,0,0,1-3.59,6.77,12.34,12.34,0,0,1-6.63,3.56,33.81,33.81,0,0,0,1.06-8.29V35.89a9.56,9.56,0,0,1,3.49-.72,5.75,5.75,0,0,1,4.18,1.6A6.14,6.14,0,0,1,87.93,42.12Z"/><path class="cls-2" d="M73.14,25.78l-27.23,0a1,1,0,0,1,.12.45,1,1,0,1,1-2,0,1,1,0,0,1,.12-.45l-27,0,0,12.36H49a2.3,2.3,0,1,1,4,0H73.12ZM23.31,30.51a1,1,0,1,1,1-1A1,1,0,0,1,23.31,30.51Zm4.25,5.76a1.74,1.74,0,1,1,1.73-1.74A1.74,1.74,0,0,1,27.56,36.27Zm8-6a1.74,1.74,0,1,1,1.73-1.74A1.74,1.74,0,0,1,35.56,30.27Zm5.49,3A2.3,2.3,0,1,1,43.35,31,2.29,2.29,0,0,1,41.05,33.28Zm17-3.36a1.73,1.73,0,1,1,1.73-1.73A1.73,1.73,0,0,1,58,29.92Zm8.42,2.84a1.15,1.15,0,1,1,1.16-1.15A1.15,1.15,0,0,1,66.43,32.76Z"/><circle class="cls-3" cx="35.56" cy="28.53" r="1.73"/><circle class="cls-3" cx="27.56" cy="34.53" r="1.73"/><path class="cls-3" d="M41.05,28.69a2.3,2.3,0,1,0,2.3,2.3A2.3,2.3,0,0,0,41.05,28.69Z"/><path class="cls-3" d="M51.05,34.69a2.28,2.28,0,0,0-2,3.37h4a2.28,2.28,0,0,0-2-3.37Z"/><path class="cls-3" d="M45,27.21a1,1,0,0,0,1-1,1,1,0,0,0-.12-.45H44.12A1,1,0,0,0,45,27.21Z"/><circle class="cls-3" cx="58.01" cy="28.19" r="1.73"/><path class="cls-3" d="M23.31,28.46a1,1,0,1,0,1,1A1,1,0,0,0,23.31,28.46Z"/><circle class="cls-3" cx="66.43" cy="31.61" r="1.15"/><path class="cls-4" d="M19.91,53A27,27,0,0,0,44.07,68h2A27,27,0,0,0,70.32,53Z"/><path class="cls-5" d="M17.12,38.06l0,2.89a26.9,26.9,0,0,0,2.81,12H70.32A27,27,0,0,0,73.12,41v-3Z"/><path class="cls-6" d="M44.16,60a19,19,0,0,1-19-19V25.74h-4V41a23,23,0,0,0,23,23h0a2,2,0,1,0,0-4Z"/></svg>